<svg width="24" height="24" viewBox="0 0 24 24" fill="none" xmlns="http://www.w3.org/2000/svg">
  <path d="M12 15.25C13.7949 15.25 15.25 13.7949 15.25 12C15.25 10.2051 13.7949 8.75 12 8.75C10.2051 8.75 8.75 10.2051 8.75 12C8.75 13.7949 10.2051 15.25 12 15.25Z" stroke="currentColor" stroke-width="1.8"/>
  <path d="M18.42 13.63C18.5 13.1 18.5 12.9 18.5 12C18.5 11.1 18.5 10.9 18.42 10.37L20.22 8.95L18.47 5.92L16.34 6.78C15.91 6.45 15.55 6.24 14.75 5.88L14.43 3.6H9.57L9.25 5.88C8.45 6.24 8.09 6.45 7.66 6.78L5.53 5.92L3.78 8.95L5.58 10.37C5.5 10.9 5.5 11.1 5.5 12C5.5 12.9 5.5 13.1 5.58 13.63L3.78 15.05L5.53 18.08L7.66 17.22C8.09 17.55 8.45 17.76 9.25 18.12L9.57 20.4H14.43L14.75 18.12C15.55 17.76 15.91 17.55 16.34 17.22L18.47 18.08L20.22 15.05L18.42 13.63Z" stroke="currentColor" stroke-width="1.8" stroke-linejoin="round"/>
</svg>
